--------------------------------------------
PLOT INFO:
Annabel and Lucas are faced with the challenge of raising his young nieces that were left alone in the forest for 5 years.... but how alone were they?

Media Info:

General
Complete name: Mama.2013.DVDRiP.AC3-5.1.XviD-AXED.avi
Format: AVI
Format/Info: Audio Video Interleave
File size: 1.38 GiB
Duration: 1h 40mn
Overall bit rate: 1 968 Kbps

Video
ID: 0
Format: MPEG-4 Visual
Format profile: Advanced Simple@L5
Format settings, BVOP: 1
Format settings, QPel: No
Format settings, GMC: No warppoints
Format settings, Matrix: Default (H.263)
Codec ID: XVID
Codec ID/Hint: XviD
Duration: 1h 40mn
Bit rate: 1 512 Kbps
Width: 720 pixels
Height: 384 pixels
Display aspect ratio: 1.875
Frame rate: 23.976 fps
Color space: YUV
Chroma subsampling: 4:2:0
Bit depth: 8 bits
Scan type: Progressive
Compression mode: Lossy
Bits/(Pixel*Frame): 0.228
Stream size: 1.06 GiB (77%)
Writing library: XviD 1.2.1 (UTC 2008-12-04)

Audio
ID: 1
Format: AC-3
Format/Info: Audio Coding 3
Mode extension: CM (complete main)
Codec ID: 2000
Duration: 1h 40mn
Bit rate mode: Constant
Bit rate: 448 Kbps
Channel(s): 6 channels
Channel positions: Front: L C R, Side: L R, LFE
Sampling rate: 48.0 KHz
Bit depth: 16 bits
Compression mode: Lossy
Stream size: 321 MiB (23%)
Alignment: Aligned on interleaves
Interleave, duration: 64 ms (1.53 video frames)
Interleave, preload duration: 192 ms
Title: VTS_01_1 T80 3_2ch 448Kbps DELAY 0ms


--------------------------------------------

More at   
http://publichash.com/

--------------------------------------------	